<svg id="레이어_1" data-name="레이어 1" xmlns="http://www.w3.org/2000/svg" viewBox="0 0 36 36"><defs><style>.cls-1{fill:#fff;}.cls-2{fill:#4285f4;}.cls-2,.cls-3,.cls-4,.cls-5{fill-rule:evenodd;}.cls-3{fill:#34a853;}.cls-4{fill:#fbbc05;}.cls-5{fill:#ea4335;}.cls-6{fill:none;}</style></defs><rect class="cls-1" width="36" height="36" rx="5"/><g id="logo_googleg_48dp" data-name="logo googleg 48dp"><path id="Shape" class="cls-2" d="M28.71,18.25a13,13,0,0,0-.2-2.28H18v4.32h6a5.09,5.09,0,0,1-2.22,3.36v2.8h3.6a10.87,10.87,0,0,0,3.33-8.2Z"/><path id="Shape-2" data-name="Shape" class="cls-3" d="M18,29.16a10.61,10.61,0,0,0,7.38-2.71l-3.6-2.8A6.71,6.71,0,0,1,18,24.72a6.63,6.63,0,0,1-6.24-4.6H8V23a11.16,11.16,0,0,0,10,6.15Z"/><path id="Shape-3" data-name="Shape" class="cls-4" d="M11.76,20.12a6.6,6.6,0,0,1,0-4.24V13H8A11.14,11.14,0,0,0,8,23l3.73-2.89Z"/><path id="Shape-4" data-name="Shape" class="cls-5" d="M18,11.28A6,6,0,0,1,22.26,13l3.2-3.2A10.71,10.71,0,0,0,18,6.84,11.16,11.16,0,0,0,8,13l3.73,2.89A6.63,6.63,0,0,1,18,11.28Z"/><path id="Shape-5" data-name="Shape" class="cls-6" d="M6.84,6.84H29.16V29.16H6.84Z"/></g></svg>