<svg id="레이어_1" data-name="레이어 1" xmlns="http://www.w3.org/2000/svg" viewBox="0 0 180.45 32.92"><path d="M5.69,23.2a6.19,6.19,0,0,1-2.52-1.92,5,5,0,0,1-1-2.73H6.86a1.81,1.81,0,0,0,.76,1.31,2.66,2.66,0,0,0,1.65.51A2.4,2.4,0,0,0,10.66,20a1.08,1.08,0,0,0-.21-1.91,14.58,14.58,0,0,0-2.27-.71,21.09,21.09,0,0,1-2.8-.83A4.66,4.66,0,0,1,3.45,15.2a3.73,3.73,0,0,1-.81-2.53,4.26,4.26,0,0,1,.74-2.45A5,5,0,0,1,5.56,8.47,8.36,8.36,0,0,1,9,7.82a6.9,6.9,0,0,1,4.64,1.46,5.67,5.67,0,0,1,1.94,3.87H11.15a1.9,1.9,0,0,0-.71-1.29,2.49,2.49,0,0,0-1.59-.48,2.18,2.18,0,0,0-1.28.32,1,1,0,0,0-.45.89,1.08,1.08,0,0,0,.71,1,10.89,10.89,0,0,0,2.23.67,24.07,24.07,0,0,1,2.82.89,4.81,4.81,0,0,1,1.92,1.4,4,4,0,0,1,.86,2.59,4.15,4.15,0,0,1-.77,2.45,5.08,5.08,0,0,1-2.22,1.69,8.43,8.43,0,0,1-3.34.62A9.09,9.09,0,0,1,5.69,23.2Z" style="fill:#616cf7"/><path d="M27.3,19.61v4.06H24.87a6,6,0,0,1-4.06-1.27,5.28,5.28,0,0,1-1.46-4.16V12h-1.9v-4h1.9V4.24h4.79V8.05h3.14v4H24.14V18.3a1.27,1.27,0,0,0,.34,1,1.6,1.6,0,0,0,1.12.31Z" style="fill:#616cf7"/><path d="M45.39,8.05V23.67H40.6V21.54a5.13,5.13,0,0,1-2,1.67,6,6,0,0,1-2.76.63,6.18,6.18,0,0,1-3.16-.8,5.31,5.31,0,0,1-2.13-2.31,7.9,7.9,0,0,1-.76-3.55V8.05h4.76v8.48A3.44,3.44,0,0,0,35.4,19a2.84,2.84,0,0,0,2.18.87A2.88,2.88,0,0,0,39.79,19a3.44,3.44,0,0,0,.81-2.44V8.05Z" style="fill:#616cf7"/><path d="M48.79,11.61A6.88,6.88,0,0,1,51.27,8.8a6.5,6.5,0,0,1,3.5-1,6.16,6.16,0,0,1,2.82.65,5.15,5.15,0,0,1,2,1.74V3h4.79V23.67H59.59V21.43a4.82,4.82,0,0,1-1.92,1.79,6,6,0,0,1-2.9.68,6.35,6.35,0,0,1-3.5-1,6.88,6.88,0,0,1-2.48-2.83,9.48,9.48,0,0,1-.91-4.24A9.4,9.4,0,0,1,48.79,11.61ZM58.59,13a3.37,3.37,0,0,0-4.84,0,3.87,3.87,0,0,0-1,2.81,4,4,0,0,0,1,2.84,3.17,3.17,0,0,0,2.42,1,3.22,3.22,0,0,0,2.42-1,3.88,3.88,0,0,0,1-2.83A3.9,3.9,0,0,0,58.59,13Z" style="fill:#616cf7"/><path d="M82.49,17H71.66a3.21,3.21,0,0,0,.93,2.22,2.84,2.84,0,0,0,2,.77,2.52,2.52,0,0,0,2.5-1.51h5.09a7,7,0,0,1-1.41,2.77,7.08,7.08,0,0,1-2.56,1.94,8.95,8.95,0,0,1-7.54-.28,7.11,7.11,0,0,1-2.8-2.8,8.71,8.71,0,0,1-1-4.26,8.75,8.75,0,0,1,1-4.25A6.87,6.87,0,0,1,70.68,8.8a8.44,8.44,0,0,1,4.11-1,8.28,8.28,0,0,1,4,1,6.79,6.79,0,0,1,2.76,2.71,8.29,8.29,0,0,1,1,4.12A11.45,11.45,0,0,1,82.49,17Zm-4.81-2.66a2.46,2.46,0,0,0-.84-2,3.07,3.07,0,0,0-2.1-.73,3,3,0,0,0-2,.7,3.08,3.08,0,0,0-1,2Z" style="fill:#616cf7"/><path d="M85.05,11.61A6.88,6.88,0,0,1,87.53,8.8a6.5,6.5,0,0,1,3.5-1,6,6,0,0,1,2.9.68,4.89,4.89,0,0,1,1.92,1.76V8.05h4.79V23.67H95.85V21.46a5.12,5.12,0,0,1-1.95,1.76,6,6,0,0,1-2.9.68,6.32,6.32,0,0,1-3.47-1,6.88,6.88,0,0,1-2.48-2.83,9.48,9.48,0,0,1-.91-4.24A9.4,9.4,0,0,1,85.05,11.61ZM94.85,13A3.37,3.37,0,0,0,90,13a3.87,3.87,0,0,0-1,2.81,4,4,0,0,0,1,2.84,3.17,3.17,0,0,0,2.42,1,3.22,3.22,0,0,0,2.42-1,3.88,3.88,0,0,0,1-2.83A3.9,3.9,0,0,0,94.85,13Z" style="fill:#616cf7"/><path d="M128.68,9.65a6.67,6.67,0,0,1,1.72,4.89v9.13h-4.76V15.19a3.24,3.24,0,0,0-.8-2.34,3.32,3.32,0,0,0-4.39,0,3.2,3.2,0,0,0-.8,2.34v8.48h-4.76V15.19a3.24,3.24,0,0,0-.8-2.34,3.33,3.33,0,0,0-4.4,0,3.23,3.23,0,0,0-.79,2.34v8.48h-4.79V8.05h4.79v2a5.1,5.1,0,0,1,1.9-1.55,5.88,5.88,0,0,1,2.66-.58,6.39,6.39,0,0,1,3.15.76,5.41,5.41,0,0,1,2.17,2.15A6.28,6.28,0,0,1,121,8.69,6,6,0,0,1,124,7.88,6.17,6.17,0,0,1,128.68,9.65Z" style="fill:#616cf7"/><path d="M134.11,5.68a2.39,2.39,0,0,1-.8-1.83,2.43,2.43,0,0,1,.8-1.86,2.89,2.89,0,0,1,2.06-.75,2.84,2.84,0,0,1,2,.75,2.43,2.43,0,0,1,.8,1.86,2.39,2.39,0,0,1-.8,1.83,2.84,2.84,0,0,1-2,.74A2.88,2.88,0,0,1,134.11,5.68Zm4.44,2.37V23.67h-4.79V8.05Z" style="fill:#616cf7"/><path d="M155.92,9.66a6.92,6.92,0,0,1,1.64,4.88v9.13H152.8V15.19a3.44,3.44,0,0,0-.81-2.44,3.18,3.18,0,0,0-4.37,0,3.44,3.44,0,0,0-.81,2.44v8.48H142V8.05h4.79v2.07a5,5,0,0,1,2-1.64,6.23,6.23,0,0,1,2.77-.6A5.65,5.65,0,0,1,155.92,9.66Z" style="fill:#616cf7"/><path d="M169.73,8.5a4.8,4.8,0,0,1,1.91,1.76V8.05h4.79v15.6a8.78,8.78,0,0,1-.85,3.9A6.49,6.49,0,0,1,173,30.34a8.39,8.39,0,0,1-4.35,1A9,9,0,0,1,163,29.73a6.14,6.14,0,0,1-2.46-4.43h4.73a2.26,2.26,0,0,0,1.06,1.41,3.85,3.85,0,0,0,2.08.52,3.3,3.3,0,0,0,2.36-.85,3.66,3.66,0,0,0,.88-2.73V21.43a5.27,5.27,0,0,1-1.93,1.78,5.79,5.79,0,0,1-2.88.69,6.33,6.33,0,0,1-3.5-1,6.81,6.81,0,0,1-2.48-2.83,9.35,9.35,0,0,1-.91-4.24,9.27,9.27,0,0,1,.91-4.22,6.81,6.81,0,0,1,2.48-2.81,6.48,6.48,0,0,1,3.5-1A6,6,0,0,1,169.73,8.5Zm.92,4.53a3.37,3.37,0,0,0-4.84,0,3.83,3.83,0,0,0-1,2.81,3.92,3.92,0,0,0,1,2.84,3.17,3.17,0,0,0,2.42,1,3.22,3.22,0,0,0,2.42-1,3.92,3.92,0,0,0,1-2.83A3.94,3.94,0,0,0,170.65,13Z" style="fill:#616cf7"/></svg>