<svg id="레이어_1" data-name="레이어 1" xmlns="http://www.w3.org/2000/svg" viewBox="0 0 125.93 24.91"><path d="M4,16.93a4.13,4.13,0,0,1-1.63-1.28,3.16,3.16,0,0,1-.64-1.81H4.06A1.62,1.62,0,0,0,4.73,15a2.43,2.43,0,0,0,1.53.47,2.64,2.64,0,0,0,1.49-.37,1.14,1.14,0,0,0,.53-.95,1,1,0,0,0-.59-.92,11.4,11.4,0,0,0-1.87-.66,19.28,19.28,0,0,1-2-.66,3.61,3.61,0,0,1-1.35-1A2.57,2.57,0,0,1,1.88,9.2,2.67,2.67,0,0,1,2.4,7.59,3.44,3.44,0,0,1,3.89,6.44,5.54,5.54,0,0,1,6.12,6a4.58,4.58,0,0,1,3,1,3.44,3.44,0,0,1,1.23,2.59H8.1a1.61,1.61,0,0,0-.6-1.18A2.21,2.21,0,0,0,6,7.94a2.34,2.34,0,0,0-1.38.34,1,1,0,0,0-.48.9,1,1,0,0,0,.32.74,2.32,2.32,0,0,0,.78.47c.3.11.76.25,1.36.43a14.64,14.64,0,0,1,2,.65,3.71,3.71,0,0,1,1.33,1,2.6,2.6,0,0,1,.58,1.7A2.93,2.93,0,0,1,10,15.82,3.51,3.51,0,0,1,8.53,17a5.51,5.51,0,0,1-2.23.42A5.57,5.57,0,0,1,4,16.93Z" style="fill:#616cf7;stroke:#616cf7;stroke-miterlimit:10"/><path d="M15.64,8.06v6.1a1.15,1.15,0,0,0,.29.89,1.43,1.43,0,0,0,1,.27h1.4v1.9h-1.8a3.45,3.45,0,0,1-2.36-.72,3,3,0,0,1-.82-2.34V8.06H12V6.2h1.3V3.46h2.3V6.2h2.68V8.06Z" style="fill:#616cf7;stroke:#616cf7;stroke-miterlimit:10"/><path d="M30.4,6.2v11H28.12v-1.3A3.72,3.72,0,0,1,26.71,17a4.48,4.48,0,0,1-1.85.39,4.91,4.91,0,0,1-2.33-.54,3.9,3.9,0,0,1-1.62-1.6,5.13,5.13,0,0,1-.59-2.56V6.2h2.26v6.14a3.18,3.18,0,0,0,.74,2.27,2.64,2.64,0,0,0,2,.79,2.7,2.7,0,0,0,2-.79,3.19,3.19,0,0,0,.75-2.27V6.2Z" style="fill:#616cf7;stroke:#616cf7;stroke-miterlimit:10"/><path d="M33.33,8.72A5,5,0,0,1,37.86,6,5.06,5.06,0,0,1,40,6.49a4.38,4.38,0,0,1,1.67,1.25V2.42H44v14.8h-2.3V15.56a4.39,4.39,0,0,1-1.55,1.32,4.9,4.9,0,0,1-2.27.52,5,5,0,0,1-2.63-.73,5.15,5.15,0,0,1-1.88-2,6.31,6.31,0,0,1-.69-3A6.08,6.08,0,0,1,33.33,8.72Zm7.86,1A3.37,3.37,0,0,0,40,8.44,3.18,3.18,0,0,0,38.32,8a3.22,3.22,0,0,0-1.64.43,3.11,3.11,0,0,0-1.23,1.26,3.86,3.86,0,0,0-.47,2,4,4,0,0,0,.47,2A3.27,3.27,0,0,0,36.69,15a3.15,3.15,0,0,0,1.63.45A3.28,3.28,0,0,0,40,15a3.48,3.48,0,0,0,1.23-1.29,4.09,4.09,0,0,0,.47-2A4,4,0,0,0,41.19,9.72Z" style="fill:#616cf7;stroke:#616cf7;stroke-miterlimit:10"/><path d="M57,12.56H48.56a3,3,0,0,0,1,2.12,3.09,3.09,0,0,0,2.16.8,2.69,2.69,0,0,0,2.6-1.54h2.46A5.05,5.05,0,0,1,55,16.43a5.38,5.38,0,0,1-3.25,1,5.64,5.64,0,0,1-2.83-.71,5,5,0,0,1-2-2,6,6,0,0,1-.71-3,6.23,6.23,0,0,1,.69-3,4.77,4.77,0,0,1,1.94-2A5.73,5.73,0,0,1,51.7,6a5.56,5.56,0,0,1,2.78.68,4.85,4.85,0,0,1,1.9,1.91,5.78,5.78,0,0,1,.68,2.83A7.66,7.66,0,0,1,57,12.56Zm-2.3-1.84a2.63,2.63,0,0,0-.9-2,3.22,3.22,0,0,0-2.18-.76,2.92,2.92,0,0,0-2,.75,3.09,3.09,0,0,0-1,2Z" style="fill:#616cf7;stroke:#616cf7;stroke-miterlimit:10"/><path d="M59.23,8.72A5,5,0,0,1,63.74,6,4.84,4.84,0,0,1,66,6.53,4.67,4.67,0,0,1,67.56,7.8V6.2h2.3v11h-2.3V15.58A4.66,4.66,0,0,1,66,16.88a5,5,0,0,1-2.28.52,4.88,4.88,0,0,1-2.6-.73,5.2,5.2,0,0,1-1.87-2,6.31,6.31,0,0,1-.69-3A6.08,6.08,0,0,1,59.23,8.72Zm7.86,1a3.37,3.37,0,0,0-1.23-1.28A3.18,3.18,0,0,0,64.22,8a3.22,3.22,0,0,0-1.64.43,3.11,3.11,0,0,0-1.23,1.26,3.86,3.86,0,0,0-.47,2,4,4,0,0,0,.47,2A3.27,3.27,0,0,0,62.59,15a3.15,3.15,0,0,0,1.63.45A3.28,3.28,0,0,0,65.86,15a3.48,3.48,0,0,0,1.23-1.29,4.09,4.09,0,0,0,.47-2A4,4,0,0,0,67.09,9.72Z" style="fill:#616cf7;stroke:#616cf7;stroke-miterlimit:10"/><path d="M88.53,6.56a4,4,0,0,1,1.62,1.6,5.21,5.21,0,0,1,.59,2.56v6.5H88.48V11.06a3.2,3.2,0,0,0-.74-2.27,3,3,0,0,0-4,0,3.16,3.16,0,0,0-.75,2.27v6.16H80.68V11.06a3.2,3.2,0,0,0-.74-2.27,3,3,0,0,0-4,0,3.16,3.16,0,0,0-.75,2.27v6.16H72.86V6.2h2.28V7.46A3.62,3.62,0,0,1,76.56,6.4,4.36,4.36,0,0,1,78.4,6a4.84,4.84,0,0,1,2.36.56,3.85,3.85,0,0,1,1.6,1.62,3.62,3.62,0,0,1,1.56-1.59A4.51,4.51,0,0,1,86.2,6,5,5,0,0,1,88.53,6.56Z" style="fill:#616cf7;stroke:#616cf7;stroke-miterlimit:10"/><path d="M93.76,4.32a1.42,1.42,0,0,1-.42-1A1.43,1.43,0,0,1,94.8,1.82a1.39,1.39,0,0,1,1,.42,1.4,1.4,0,0,1,.42,1,1.42,1.42,0,0,1-.42,1,1.47,1.47,0,0,1-2.06,0ZM95.92,6.2v11H93.64V6.2Z" style="fill:#616cf7;stroke:#616cf7;stroke-miterlimit:10"/><path d="M106.81,6.56a3.88,3.88,0,0,1,1.61,1.6,5.32,5.32,0,0,1,.58,2.56v6.5h-2.26V11.06A3.2,3.2,0,0,0,106,8.79a3,3,0,0,0-4,0,3.16,3.16,0,0,0-.75,2.27v6.16H98.92V6.2h2.28V7.46a3.65,3.65,0,0,1,1.43-1.06A4.44,4.44,0,0,1,104.48,6,5,5,0,0,1,106.81,6.56Z" style="fill:#616cf7;stroke:#616cf7;stroke-miterlimit:10"/><path d="M118.61,6.53a4.38,4.38,0,0,1,1.55,1.27V6.2h2.3V17.4a5.74,5.74,0,0,1-.64,2.71A4.75,4.75,0,0,1,120,22a5.85,5.85,0,0,1-2.89.68,6.24,6.24,0,0,1-3.72-1.05,3.85,3.85,0,0,1-1.68-2.85h2.26a2.46,2.46,0,0,0,1.11,1.39,3.76,3.76,0,0,0,2,.53,3,3,0,0,0,2.23-.84,3.32,3.32,0,0,0,.85-2.44V15.56a4.74,4.74,0,0,1-3.82,1.84,5,5,0,0,1-2.63-.73,5.15,5.15,0,0,1-1.88-2,6.31,6.31,0,0,1-.69-3,6.08,6.08,0,0,1,.69-2.94A5,5,0,0,1,116.34,6,4.9,4.9,0,0,1,118.61,6.53Zm1.08,3.19a3.37,3.37,0,0,0-1.23-1.28A3.18,3.18,0,0,0,116.82,8a3.22,3.22,0,0,0-1.64.43A3.11,3.11,0,0,0,114,9.69a3.86,3.86,0,0,0-.47,2,4,4,0,0,0,.47,2A3.27,3.27,0,0,0,115.19,15a3.15,3.15,0,0,0,1.63.45,3.28,3.28,0,0,0,1.64-.44,3.48,3.48,0,0,0,1.23-1.29,4.09,4.09,0,0,0,.47-2A4,4,0,0,0,119.69,9.72Z" style="fill:#616cf7;stroke:#616cf7;stroke-miterlimit:10"/></svg>