<svg id="레이어_1" data-name="레이어 1" xmlns="http://www.w3.org/2000/svg" viewBox="0 0 180 33"><path d="M8.45,22.45a5.73,5.73,0,0,1-2.28-1.8,4.39,4.39,0,0,1-.89-2.53h3.3a2.28,2.28,0,0,0,.94,1.64,3.39,3.39,0,0,0,2.14.66,3.61,3.61,0,0,0,2.08-.52,1.57,1.57,0,0,0,.75-1.33,1.37,1.37,0,0,0-.83-1.29A14.87,14.87,0,0,0,11,16.36a25.15,25.15,0,0,1-2.82-.93,5,5,0,0,1-1.9-1.37,3.62,3.62,0,0,1-.79-2.44,3.76,3.76,0,0,1,.73-2.25A4.82,4.82,0,0,1,8.34,7.76a7.86,7.86,0,0,1,3.12-.59A6.51,6.51,0,0,1,15.71,8.5a4.82,4.82,0,0,1,1.72,3.63h-3.2a2.25,2.25,0,0,0-.83-1.65,3.17,3.17,0,0,0-2.05-.62,3.29,3.29,0,0,0-1.93.48,1.45,1.45,0,0,0-.67,1.26,1.35,1.35,0,0,0,.45,1,3.12,3.12,0,0,0,1.09.66c.43.16,1.06.36,1.9.6A20.72,20.72,0,0,1,15,14.8a5.09,5.09,0,0,1,1.86,1.36,3.62,3.62,0,0,1,.81,2.38,4,4,0,0,1-.72,2.35,5,5,0,0,1-2.06,1.63,7.72,7.72,0,0,1-3.12.58A7.92,7.92,0,0,1,8.45,22.45Z" style="fill:#777cff;stroke:#777cff;stroke-miterlimit:10"/><path d="M24.79,10v8.54a1.62,1.62,0,0,0,.41,1.24,2,2,0,0,0,1.38.38h2v2.66H26a4.81,4.81,0,0,1-3.3-1,4.12,4.12,0,0,1-1.15-3.27V10H19.75V7.42h1.82V3.59h3.22V7.42h3.75V10Z" style="fill:#777cff;stroke:#777cff;stroke-miterlimit:10"/><path d="M45.46,7.42V22.85h-3.2V21a5.05,5.05,0,0,1-2,1.5,6.34,6.34,0,0,1-2.59.55,7,7,0,0,1-3.26-.76,5.44,5.44,0,0,1-2.27-2.24,7.26,7.26,0,0,1-.83-3.58V7.42h3.17V16a4.49,4.49,0,0,0,1,3.18,4.2,4.2,0,0,0,5.67,0,4.45,4.45,0,0,0,1-3.18V7.42Z" style="fill:#777cff;stroke:#777cff;stroke-miterlimit:10"/><path d="M49.56,11A7.06,7.06,0,0,1,55.9,7.17a7.2,7.2,0,0,1,3,.66,6.11,6.11,0,0,1,2.34,1.75V2.13h3.22V22.85H61.22V20.53a6.1,6.1,0,0,1-2.17,1.85,6.78,6.78,0,0,1-3.18.72,6.92,6.92,0,0,1-3.68-1,7.18,7.18,0,0,1-2.63-2.85,8.74,8.74,0,0,1-1-4.16A8.5,8.5,0,0,1,49.56,11Zm11,1.4a4.64,4.64,0,0,0-1.72-1.79,4.54,4.54,0,0,0-2.3-.62,4.49,4.49,0,0,0-2.29.61,4.42,4.42,0,0,0-1.72,1.76,5.47,5.47,0,0,0-.66,2.76,5.74,5.74,0,0,0,.66,2.8,4.57,4.57,0,0,0,1.73,1.83,4.46,4.46,0,0,0,2.28.63,4.53,4.53,0,0,0,2.3-.61,4.69,4.69,0,0,0,1.72-1.81,5.64,5.64,0,0,0,.66-2.79A5.59,5.59,0,0,0,60.56,12.35Z" style="fill:#777cff;stroke:#777cff;stroke-miterlimit:10"/><path d="M82.67,16.33H70.88a4.29,4.29,0,0,0,1.37,3,4.36,4.36,0,0,0,3,1.12,3.72,3.72,0,0,0,3.63-2.16h3.45a7,7,0,0,1-2.54,3.49,7.43,7.43,0,0,1-4.54,1.35,7.93,7.93,0,0,1-4-1,7.1,7.1,0,0,1-2.74-2.8,8.57,8.57,0,0,1-1-4.19,8.77,8.77,0,0,1,1-4.18,6.77,6.77,0,0,1,2.72-2.79,8.09,8.09,0,0,1,4-1,7.92,7.92,0,0,1,3.89.95,6.79,6.79,0,0,1,2.66,2.68,8.11,8.11,0,0,1,1,4A10.64,10.64,0,0,1,82.67,16.33Zm-3.22-2.58a3.66,3.66,0,0,0-1.26-2.83,4.5,4.5,0,0,0-3-1.06,4.08,4.08,0,0,0-2.83,1.05,4.37,4.37,0,0,0-1.4,2.84Z" style="fill:#777cff;stroke:#777cff;stroke-miterlimit:10"/><path d="M85.82,11a7.06,7.06,0,0,1,6.31-3.78,6.72,6.72,0,0,1,3.18.72,6.39,6.39,0,0,1,2.17,1.77V7.42h3.22V22.85H97.48V20.56a6.49,6.49,0,0,1-2.21,1.82,6.92,6.92,0,0,1-3.2.72,6.77,6.77,0,0,1-3.63-1,7.15,7.15,0,0,1-2.62-2.85,8.74,8.74,0,0,1-1-4.16A8.5,8.5,0,0,1,85.82,11Zm11,1.4a4.64,4.64,0,0,0-1.72-1.79,4.54,4.54,0,0,0-2.3-.62,4.49,4.49,0,0,0-2.29.61,4.42,4.42,0,0,0-1.72,1.76,5.47,5.47,0,0,0-.66,2.76,5.74,5.74,0,0,0,.66,2.8,4.57,4.57,0,0,0,1.73,1.83,4.46,4.46,0,0,0,2.28.63,4.53,4.53,0,0,0,2.3-.61,4.69,4.69,0,0,0,1.72-1.81,5.64,5.64,0,0,0,.66-2.79A5.59,5.59,0,0,0,96.82,12.35Z" style="fill:#777cff;stroke:#777cff;stroke-miterlimit:10"/><path d="M126.84,7.93a5.5,5.5,0,0,1,2.27,2.24,7.37,7.37,0,0,1,.82,3.58v9.1h-3.16V14.23a4.49,4.49,0,0,0-1-3.18,3.68,3.68,0,0,0-2.83-1.11,3.73,3.73,0,0,0-2.84,1.11,4.45,4.45,0,0,0-1,3.18v8.62h-3.16V14.23a4.49,4.49,0,0,0-1-3.18A3.68,3.68,0,0,0,112,9.94a3.73,3.73,0,0,0-2.84,1.11,4.45,4.45,0,0,0-1,3.18v8.62H104.9V7.42h3.19V9.19a5.33,5.33,0,0,1,2-1.49,6.36,6.36,0,0,1,2.57-.53A6.78,6.78,0,0,1,116,8a5.31,5.31,0,0,1,2.24,2.26A5.13,5.13,0,0,1,120.38,8a6.49,6.49,0,0,1,3.19-.83A6.86,6.86,0,0,1,126.84,7.93Z" style="fill:#777cff;stroke:#777cff;stroke-miterlimit:10"/><path d="M134.16,4.79a2,2,0,0,1-.59-1.45,2,2,0,0,1,2-2,2,2,0,0,1,1.43.59,2,2,0,0,1,.59,1.46A2,2,0,0,1,137,4.79a2,2,0,0,1-1.43.59A2,2,0,0,1,134.16,4.79Zm3,2.63V22.85H134V7.42Z" style="fill:#777cff;stroke:#777cff;stroke-miterlimit:10"/><path d="M152.43,7.93a5.34,5.34,0,0,1,2.25,2.24,7.37,7.37,0,0,1,.81,3.58v9.1h-3.16V14.23a4.49,4.49,0,0,0-1-3.18,3.67,3.67,0,0,0-2.82-1.11,3.74,3.74,0,0,0-2.85,1.11,4.45,4.45,0,0,0-1.05,3.18v8.62h-3.19V7.42h3.19V9.19a5.32,5.32,0,0,1,2-1.49,6.45,6.45,0,0,1,2.59-.53A6.85,6.85,0,0,1,152.43,7.93Z" style="fill:#777cff;stroke:#777cff;stroke-miterlimit:10"/><path d="M169,7.89a6.12,6.12,0,0,1,2.17,1.77V7.42h3.22V23.1a7.87,7.87,0,0,1-.9,3.8,6.53,6.53,0,0,1-2.59,2.62,8.18,8.18,0,0,1-4,.95A8.78,8.78,0,0,1,161.6,29a5.41,5.41,0,0,1-2.35-4h3.16A3.41,3.41,0,0,0,164,27a5.24,5.24,0,0,0,2.85.75,4.29,4.29,0,0,0,3.12-1.18,4.6,4.6,0,0,0,1.19-3.42V20.53a6.64,6.64,0,0,1-5.35,2.57,6.92,6.92,0,0,1-3.68-1,7.18,7.18,0,0,1-2.63-2.85,8.74,8.74,0,0,1-1-4.16,8.5,8.5,0,0,1,1-4.12,7.06,7.06,0,0,1,6.31-3.78A6.83,6.83,0,0,1,169,7.89Zm1.51,4.46a4.64,4.64,0,0,0-1.72-1.79,4.54,4.54,0,0,0-2.3-.62,4.59,4.59,0,0,0-4,2.37,5.47,5.47,0,0,0-.65,2.76,5.73,5.73,0,0,0,.65,2.8,4.66,4.66,0,0,0,1.74,1.83,4.46,4.46,0,0,0,2.28.63,4.53,4.53,0,0,0,2.3-.61,4.69,4.69,0,0,0,1.72-1.81,5.64,5.64,0,0,0,.66-2.79A5.59,5.59,0,0,0,170.46,12.35Z" style="fill:#777cff;stroke:#777cff;stroke-miterlimit:10"/></svg>