<svg id="레이어_1" data-name="레이어 1" xmlns="http://www.w3.org/2000/svg" viewBox="0 0 125 25"><path d="M4.17,16.68A4,4,0,0,1,2.54,15.4a3.21,3.21,0,0,1-.64-1.81H4.26a1.59,1.59,0,0,0,.67,1.17,2.47,2.47,0,0,0,1.53.47A2.54,2.54,0,0,0,8,14.86a1.12,1.12,0,0,0,.53-.95A1,1,0,0,0,7.89,13,11.06,11.06,0,0,0,6,12.33a19.28,19.28,0,0,1-2-.66,3.51,3.51,0,0,1-1.35-1A2.57,2.57,0,0,1,2.08,9,2.69,2.69,0,0,1,2.6,7.34,3.44,3.44,0,0,1,4.09,6.19a5.58,5.58,0,0,1,2.23-.42,4.64,4.64,0,0,1,3,1,3.39,3.39,0,0,1,1.23,2.59H8.3a1.62,1.62,0,0,0-.6-1.18,2.27,2.27,0,0,0-1.46-.44A2.34,2.34,0,0,0,4.86,8a1.06,1.06,0,0,0-.48.9,1,1,0,0,0,.32.74,2.17,2.17,0,0,0,.78.47c.31.11.76.26,1.36.43a14.17,14.17,0,0,1,2,.65,3.63,3.63,0,0,1,1.33,1,2.57,2.57,0,0,1,.58,1.7,2.81,2.81,0,0,1-.52,1.68,3.51,3.51,0,0,1-1.47,1.16,5.48,5.48,0,0,1-2.23.42A5.6,5.6,0,0,1,4.17,16.68Z" style="fill:#777cff;stroke:#777cff;stroke-miterlimit:10"/><path d="M15.84,7.81v6.1a1.19,1.19,0,0,0,.29.89,1.43,1.43,0,0,0,1,.27h1.4V17h-1.8a3.47,3.47,0,0,1-2.36-.72,3,3,0,0,1-.82-2.34V7.81h-1.3V6h1.3V3.21h2.3V6h2.68V7.81Z" style="fill:#777cff;stroke:#777cff;stroke-miterlimit:10"/><path d="M30.6,6V17H28.32v-1.3a3.72,3.72,0,0,1-1.41,1.07,4.48,4.48,0,0,1-1.85.39,4.94,4.94,0,0,1-2.33-.54A3.84,3.84,0,0,1,21.11,15a5.24,5.24,0,0,1-.59-2.56V6h2.26v6.14a3.21,3.21,0,0,0,.74,2.27,2.62,2.62,0,0,0,2,.79,2.66,2.66,0,0,0,2-.79,3.17,3.17,0,0,0,.75-2.27V6Z" style="fill:#777cff;stroke:#777cff;stroke-miterlimit:10"/><path d="M33.53,8.47a5,5,0,0,1,4.53-2.7,5.22,5.22,0,0,1,2.13.47,4.3,4.3,0,0,1,1.67,1.25V2.17h2.3V17h-2.3V15.31a4.31,4.31,0,0,1-1.55,1.32,4.78,4.78,0,0,1-2.27.52,4.89,4.89,0,0,1-2.63-.73,5.22,5.22,0,0,1-1.88-2,6.26,6.26,0,0,1-.69-3A6.08,6.08,0,0,1,33.53,8.47Zm7.86,1a3.26,3.26,0,0,0-5.74,0,4,4,0,0,0-.47,2,4.13,4.13,0,0,0,.47,2,3.34,3.34,0,0,0,1.24,1.31,3.18,3.18,0,0,0,1.63.45,3.25,3.25,0,0,0,1.64-.44,3.19,3.19,0,0,0,1.23-1.29,4.09,4.09,0,0,0,.47-2A4,4,0,0,0,41.39,9.47Z" style="fill:#777cff;stroke:#777cff;stroke-miterlimit:10"/><path d="M57.18,12.31H48.76a3.05,3.05,0,0,0,1,2.12,3.12,3.12,0,0,0,2.16.8,2.66,2.66,0,0,0,2.6-1.54H57a5,5,0,0,1-1.81,2.49,5.29,5.29,0,0,1-3.25,1,5.66,5.66,0,0,1-2.83-.71,5,5,0,0,1-2-2,6.15,6.15,0,0,1-.71-3,6.25,6.25,0,0,1,.69-3,4.89,4.89,0,0,1,1.94-2,5.73,5.73,0,0,1,2.87-.7,5.64,5.64,0,0,1,2.78.68,4.78,4.78,0,0,1,1.9,1.91,5.78,5.78,0,0,1,.68,2.83A7.55,7.55,0,0,1,57.18,12.31Zm-2.3-1.84a2.58,2.58,0,0,0-.9-2,3.2,3.2,0,0,0-2.18-.76,2.92,2.92,0,0,0-2,.75,3.16,3.16,0,0,0-1,2Z" style="fill:#777cff;stroke:#777cff;stroke-miterlimit:10"/><path d="M59.43,8.47a5,5,0,0,1,4.51-2.7,4.81,4.81,0,0,1,2.27.51,4.57,4.57,0,0,1,1.55,1.27V6h2.3V17h-2.3V15.33a4.56,4.56,0,0,1-1.58,1.3,5.11,5.11,0,0,1-4.88-.21,5.2,5.2,0,0,1-1.87-2,6.26,6.26,0,0,1-.69-3A6.08,6.08,0,0,1,59.43,8.47Zm7.86,1a3.26,3.26,0,0,0-5.74,0,3.86,3.86,0,0,0-.47,2,4,4,0,0,0,.47,2,3.34,3.34,0,0,0,1.24,1.31,3.18,3.18,0,0,0,1.63.45,3.25,3.25,0,0,0,1.64-.44,3.19,3.19,0,0,0,1.23-1.29,4.09,4.09,0,0,0,.47-2A4,4,0,0,0,67.29,9.47Z" style="fill:#777cff;stroke:#777cff;stroke-miterlimit:10"/><path d="M88.73,6.31a3.84,3.84,0,0,1,1.62,1.6,5.24,5.24,0,0,1,.59,2.56V17H88.68V10.81a3.21,3.21,0,0,0-.74-2.27,2.62,2.62,0,0,0-2-.79,2.66,2.66,0,0,0-2,.79,3.17,3.17,0,0,0-.75,2.27V17H80.88V10.81a3.21,3.21,0,0,0-.74-2.27,2.62,2.62,0,0,0-2-.79,2.66,2.66,0,0,0-2,.79,3.17,3.17,0,0,0-.75,2.27V17H73.06V6h2.28V7.21a3.79,3.79,0,0,1,1.42-1.06,4.56,4.56,0,0,1,1.84-.38A4.93,4.93,0,0,1,81,6.33,3.79,3.79,0,0,1,82.56,8a3.62,3.62,0,0,1,1.56-1.59,4.67,4.67,0,0,1,2.28-.59A4.94,4.94,0,0,1,88.73,6.31Z" style="fill:#777cff;stroke:#777cff;stroke-miterlimit:10"/><path d="M94,4.07a1.42,1.42,0,0,1-.42-1A1.43,1.43,0,0,1,95,1.57,1.39,1.39,0,0,1,96,2a1.42,1.42,0,0,1,.42,1,1.42,1.42,0,0,1-.42,1,1.39,1.39,0,0,1-1,.42A1.42,1.42,0,0,1,94,4.07ZM96.12,6V17H93.84V6Z" style="fill:#777cff;stroke:#777cff;stroke-miterlimit:10"/><path d="M107,6.31a3.88,3.88,0,0,1,1.61,1.6,5.24,5.24,0,0,1,.58,2.56V17h-2.26V10.81a3.21,3.21,0,0,0-.74-2.27,3,3,0,0,0-4,0,3.17,3.17,0,0,0-.75,2.27V17H99.12V6h2.28V7.21a3.75,3.75,0,0,1,1.43-1.06,4.64,4.64,0,0,1,1.85-.38A4.94,4.94,0,0,1,107,6.31Z" style="fill:#777cff;stroke:#777cff;stroke-miterlimit:10"/><path d="M118.81,6.28a4.38,4.38,0,0,1,1.55,1.27V6h2.3v11.2a5.71,5.71,0,0,1-.64,2.71,4.69,4.69,0,0,1-1.85,1.87,5.85,5.85,0,0,1-2.89.68,6.24,6.24,0,0,1-3.72-1.05,3.85,3.85,0,0,1-1.68-2.85h2.26a2.43,2.43,0,0,0,1.11,1.39,3.79,3.79,0,0,0,2,.53,3,3,0,0,0,2.23-.84,3.3,3.3,0,0,0,.85-2.44V15.31a4.64,4.64,0,0,1-1.57,1.31,4.73,4.73,0,0,1-2.25.53,4.89,4.89,0,0,1-2.63-.73,5.15,5.15,0,0,1-1.88-2,6.26,6.26,0,0,1-.69-3A6.08,6.08,0,0,1,112,8.47a5,5,0,0,1,4.51-2.7A4.9,4.9,0,0,1,118.81,6.28Zm1.08,3.19a3.37,3.37,0,0,0-1.23-1.28A3.28,3.28,0,0,0,117,7.75a3.23,3.23,0,0,0-2.87,1.69,3.86,3.86,0,0,0-.47,2,4,4,0,0,0,.47,2,3.27,3.27,0,0,0,1.24,1.31,3.15,3.15,0,0,0,1.63.45,3.28,3.28,0,0,0,1.64-.44,3.33,3.33,0,0,0,1.23-1.29,4.09,4.09,0,0,0,.47-2A4,4,0,0,0,119.89,9.47Z" style="fill:#777cff;stroke:#777cff;stroke-miterlimit:10"/></svg>