<svg id="레이어_1" data-name="레이어 1" xmlns="http://www.w3.org/2000/svg" viewBox="0 0 800 298.59"><defs><style>.cls-1,.cls-2{fill:#1a1a1a;}.cls-2{font-size:130px;font-family:Righteous-Regular, Righteous;}</style></defs><path class="cls-1" d="M112.61,176a22,22,0,0,0,5.91,3.38,17.08,17.08,0,0,0,6,1.11,9.33,9.33,0,0,0,5.92-1.69,5.63,5.63,0,0,0,2.14-4.68,6.5,6.5,0,0,0-1.69-4.49,14.14,14.14,0,0,0-4.68-3.25q-3-1.36-7-2.79a69.08,69.08,0,0,1-8-3.71,19,19,0,0,1-6.5-5.65,14.72,14.72,0,0,1-2.54-8.84,14.45,14.45,0,0,1,2.8-9.1,16.37,16.37,0,0,1,7.54-5.4,29.14,29.14,0,0,1,10.2-1.75,29.5,29.5,0,0,1,9.3,1.43,32.11,32.11,0,0,1,7.86,3.77,27.3,27.3,0,0,1,6,5.33L138,148a24.17,24.17,0,0,0-7.15-5.72,18,18,0,0,0-8.58-2.21,8.71,8.71,0,0,0-4.94,1.3,4.24,4.24,0,0,0-1.95,3.77,4.94,4.94,0,0,0,1.76,3.7,17,17,0,0,0,4.68,2.93c2,.86,4.13,1.77,6.56,2.73a73.87,73.87,0,0,1,9.1,4.29,21.18,21.18,0,0,1,6.7,5.72,14.35,14.35,0,0,1,2.53,8.84q0,8.44-5.78,13.58T125.28,192A32.3,32.3,0,0,1,114,190.14a31.49,31.49,0,0,1-9-4.94,37.29,37.29,0,0,1-6.44-6.43l8.19-8.19A47,47,0,0,0,112.61,176Z"/><path class="cls-1" d="M169.16,187.61a26.8,26.8,0,0,1-10.73-10.92,37.44,37.44,0,0,1,.07-32.89,26.7,26.7,0,0,1,10.85-10.86,34,34,0,0,1,16.51-3.83q9.49,0,16.12,3.64a24.77,24.77,0,0,1,10.21,10.46,35.09,35.09,0,0,1,3.57,16.45c0,.69,0,1.43-.06,2.21a10.34,10.34,0,0,1-.2,1.69H163v-9.62h40.56l-4.29,6a18.13,18.13,0,0,0,.85-2.15,7.57,7.57,0,0,0,.45-2.27,17.41,17.41,0,0,0-1.88-8.32,13.75,13.75,0,0,0-5.2-5.46,15,15,0,0,0-7.74-1.95,16.92,16.92,0,0,0-9.1,2.34,14.68,14.68,0,0,0-5.72,6.76,28.5,28.5,0,0,0-2.08,10.92,27.51,27.51,0,0,0,1.95,11,14.52,14.52,0,0,0,5.79,6.83,17.48,17.48,0,0,0,9.29,2.34,20.59,20.59,0,0,0,10-2.34,18.86,18.86,0,0,0,7.15-7.15l12.09,4.94A31.2,31.2,0,0,1,203,187.48q-7.41,4-17.81,4A32.22,32.22,0,0,1,169.16,187.61Z"/><path class="cls-1" d="M314.69,190.21h-14v-36.4q0-6.76-2.4-10.08c-1.61-2.21-4.14-3.31-7.61-3.31a12,12,0,0,0-6.17,1.56,10.52,10.52,0,0,0-4.16,4.55,16.09,16.09,0,0,0-1.5,7.28v36.4h-14v-36.4q0-6.76-2.41-10.08t-7.6-3.31a12.22,12.22,0,0,0-6.3,1.56,10.16,10.16,0,0,0-4.1,4.55,16.81,16.81,0,0,0-1.43,7.28v36.4H229.15v-59.8h13.78v8.71a18.42,18.42,0,0,1,6.83-7.48,18.93,18.93,0,0,1,9.94-2.53,20.37,20.37,0,0,1,11,2.73,15.42,15.42,0,0,1,6.3,7.93,21.89,21.89,0,0,1,7.86-7.93,21.42,21.42,0,0,1,10.86-2.73,19.59,19.59,0,0,1,10.6,2.66,16,16,0,0,1,6.3,7.87,33.9,33.9,0,0,1,2.08,12.61Z"/><path class="cls-1" d="M334.77,100.51A8.81,8.81,0,0,1,341,98a8.66,8.66,0,0,1,6.3,2.47,8.53,8.53,0,0,1,0,12.15,8.56,8.56,0,0,1-6.3,2.54,8.71,8.71,0,0,1-6.18-2.54,8.27,8.27,0,0,1,0-12.15Zm13.07,29.9v59.8H334.06v-59.8Z"/><path class="cls-1" d="M379,170.25a18.34,18.34,0,0,0,16.12,9.17,25.63,25.63,0,0,0,8.19-1.3,22.89,22.89,0,0,0,6.89-3.64,15.51,15.51,0,0,0,4.42-5.2v15.47a21.59,21.59,0,0,1-8.45,4.94,36.16,36.16,0,0,1-11.7,1.82,34.27,34.27,0,0,1-16.58-4,29.56,29.56,0,0,1-11.57-11,33.26,33.26,0,0,1,0-32.43,29.84,29.84,0,0,1,11.57-11,34.37,34.37,0,0,1,16.58-4,35.89,35.89,0,0,1,11.7,1.82,21.59,21.59,0,0,1,8.45,4.94v15.47a14.29,14.29,0,0,0-4.49-5.27,24.55,24.55,0,0,0-6.95-3.57,25.24,25.24,0,0,0-8.06-1.3A18.23,18.23,0,0,0,379,150.43a21.12,21.12,0,0,0,0,19.82Z"/><path class="cls-1" d="M429.8,144.06a29.88,29.88,0,0,1,11.51-11,34,34,0,0,1,16.51-4,33.6,33.6,0,0,1,16.44,4,31.13,31.13,0,0,1,0,54.47,33.5,33.5,0,0,1-16.44,4,33.85,33.85,0,0,1-16.51-4,29.6,29.6,0,0,1-11.51-11,33.26,33.26,0,0,1,0-32.43Zm12.55,26.06a17.69,17.69,0,0,0,30.94,0,19.91,19.91,0,0,0,2.34-9.81,20.29,20.29,0,0,0-2.34-9.88,16.64,16.64,0,0,0-6.44-6.63,18.73,18.73,0,0,0-18.13,0,16.74,16.74,0,0,0-6.37,6.63,20.29,20.29,0,0,0-2.34,9.88A19.91,19.91,0,0,0,442.35,170.12Z"/><path class="cls-1" d="M517.36,88.81v101.4H503.31V88.81Z"/><path class="cls-1" d="M535,144.06a29.86,29.86,0,0,1,11.5-11,34,34,0,0,1,16.51-4,33.61,33.61,0,0,1,16.45,4,31.15,31.15,0,0,1,0,54.47,33.51,33.51,0,0,1-16.45,4,33.91,33.91,0,0,1-16.51-4,29.58,29.58,0,0,1-11.5-11,33.19,33.19,0,0,1,0-32.43Zm12.54,26.06A17.88,17.88,0,0,0,572,176.75a17.15,17.15,0,0,0,6.43-6.63,19.91,19.91,0,0,0,2.34-9.81,20.29,20.29,0,0,0-2.34-9.88A16.62,16.62,0,0,0,572,143.8a18.75,18.75,0,0,0-18.14,0,16.81,16.81,0,0,0-6.37,6.63,20.29,20.29,0,0,0-2.34,9.88A19.91,19.91,0,0,0,547.51,170.12Z"/><path class="cls-1" d="M644.23,143.8c-1.82-2.26-4.63-3.38-8.45-3.38a14.23,14.23,0,0,0-6.89,1.62,11.71,11.71,0,0,0-4.68,4.68,14.38,14.38,0,0,0-1.69,7.09v36.4h-14v-59.8h14v9.23a19.49,19.49,0,0,1,7.35-7.93,20.94,20.94,0,0,1,10.72-2.6q10.14,0,15.47,6.17t5.33,17v38H647v-36.4Q647,147.18,644.23,143.8Z"/><text class="cls-2" transform="translate(678.69 178.18)">;</text></svg>